<svg width="68" height="68" viewBox="0 0 68 68" fill="none" xmlns="http://www.w3.org/2000/svg">
<mask id="mask0_1557_6735" style="mask-type:alpha" maskUnits="userSpaceOnUse" x="4" y="4" width="60" height="60">
<path d="M34 64C50.5685 64 64 50.5685 64 34C64 17.4315 50.5685 4 34 4C17.4315 4 4 17.4315 4 34C4 50.5685 17.4315 64 34 64Z" fill="white"/>
</mask>
<g mask="url(#mask0_1557_6735)">
<path d="M34 64C50.5685 64 64 50.5685 64 34C64 17.4315 50.5685 4 34 4C17.4315 4 4 17.4315 4 34C4 50.5685 17.4315 64 34 64Z" fill="#414141"/>
<path fill-rule="evenodd" clip-rule="evenodd" d="M33.9991 64.1521H56.3081V57.0471C56.3081 54.7001 54.7031 51.7311 52.7441 50.4521L41.8741 43.8511C41.0241 43.3471 40.0491 42.6141 40.0491 40.4661C40.0491 39.0601 41.2351 37.9471 41.5911 37.5061C43.3366 35.6133 44.3043 33.1319 44.3011 30.5571V25.2921C44.3011 19.5841 39.6911 16.3081 33.9991 16.3081C28.3071 16.3081 23.6971 19.5841 23.6971 25.2921V30.5571C23.6971 33.2471 24.7291 35.6751 26.4071 37.5051C26.7641 37.9471 27.9501 39.0601 27.9501 40.4651C27.9501 42.6141 26.9741 43.3471 26.1241 43.8511L15.2531 50.4521C13.2941 51.7321 11.6931 54.7001 11.6931 57.0471V64.1521H33.9991Z" fill="#595959"/>
</g>
</svg>
